						<svg
						version="1.0"
						xmlns="http://www.w3.org/2000/svg"
						style="height: 32px; margin-left: -5px"
						viewBox="0 0 450 450"
					>
						<g
							transform="translate(0.000000,3000.000000) scale(0.050000,-0.050000)"
							fill="rgba(209, 213, 219, 1)"
							stroke="none"
						>
							<path
								d="M2280 57710 c-514 -141 -903 -576 -961 -1076 -10 -90 -19 -886 -19 -1769 l0 -1605 240 0 240 0 0 1084 c0 911 4 1080 27 1055 15 -16 331 -504 703 -1084 l677 -1055 236 0 237 0 0 1630 0 1630 -480 0 -480 0 0 -199 0 -200 245 -5 245 -6 6 -108 c16 -284 -565 -450 -939 -267 -414 203 -589 689 -392 1089 261 528 965 640 1368 219 l88 -91 163 162 162 163 -112 106 c-316 302 -842 439 -1254 327z m920 -2994 c0 -378 -7 -597 -19 -585 -10 10 -171 253 -357 539 l-338 520 192 14 c117 8 251 32 342 63 83 27 157 50 165 51 8 1 15 -270 15 -602z"
							/>
							<path
								d="M4020 55500 l0 -2240 800 0 800 0 0 200 0 199 -565 6 -565 5 -5 335 -6 335 571 0 570 0 0 190 0 189 -565 6 -565 5 -6 275 -5 275 570 0 571 0 0 210 0 209 -565 6 -565 5 -5 1015 -5 1015 -230 0 -230 0 0 -2240z"
							/>
							<path
								d="M5860 57513 l0 -228 340 -517 340 -518 0 -275 0 -275 -340 0 -340 0 0 -210 0 -210 340 0 340 0 0 -1010 0 -1010 240 0 240 0 0 1010 0 1009 335 6 335 5 6 205 5 205 -340 0 -341 0 0 277 0 277 206 298 c114 164 267 386 340 494 l134 197 0 248 0 249 -115 0 -115 0 -340 -529 c-187 -291 -344 -530 -350 -530 -5 0 -157 238 -337 529 l-327 530 -128 0 -128 0 0 -227z"
							/>
						</g>
					</svg>